<?xml version="1.0" encoding="UTF-8"?>
<svg id="Layer_2" data-name="Layer 2" xmlns="http://www.w3.org/2000/svg" viewBox="0 0 575.69 399.31">
  <defs>
    <style>
      .cls-1 {
        font-family: CaviarDreams-Bold, 'Caviar Dreams';
        font-size: 41.46px;
        letter-spacing: .15em;
      }

      .cls-1, .cls-2 {
        fill: #e9bb7f;
      }

      .cls-3 {
        fill: none;
        stroke: #000;
        stroke-width: 1.02px;
      }

      .cls-3, .cls-4 {
        stroke-miterlimit: 10;
      }

      .cls-3, .cls-5 {
        font-family: Geneva, Geneva;
        font-size: 21.94px;
      }

      .cls-4 {
        fill: #231f20;
        stroke: #e9bb7f;
      }
    </style>
  </defs>
  <g id="Layer_1-2" data-name="Layer 1">
    <g>
      <text class="cls-5" transform="translate(154 384.8) scale(1.02 1)"><tspan x="0" y="0"> </tspan></text>
      <text class="cls-3" transform="translate(154 384.8) scale(1.02 1)"><tspan x="0" y="0"> </tspan></text>
      <g>
        <path class="cls-2" d="M127.13,177.71c-.06-1.71-.1-3.45-.6-5.13-.88-2.99-2.33-5.72-3.82-8.44-3.27-5.95-6.67-11.82-10.34-17.53-1.65-2.57-3.43-5.05-5.12-7.6-.7-1.05-1.56-2-2-3.21-.67-.86-1.22-1.81-1.69-2.79-.25-.29-.49-.59-.54-.99-.21-.37-.43-.73-.64-1.1-1.27-2.98-2.47-5.97-2.04-9.34-1.66,2.05-2.54,4.4-2.99,6.92-.39,2.18-.38,4.35,.52,6.45,.29,.68,.72,1.31,.86,2.07,.73,1.19,1.1,2.55,1.77,3.77,2.15,4.26,4.54,8.39,6.96,12.51,3.45,5.87,7.15,11.6,10,17.81,1.97,4.29,3.47,8.7,3.93,13.42,.04,.41-.04,.69-.37,.97-2.23,1.96-4.86,2.95-7.77,3.19-1.59,.13-3.14-.16-4.59-.89-.61-.3-.77-.76-.29-1.22,.49-.47,.58-1.05,.71-1.62,.53-2.23-.61-4.63-2.68-5.77-2.03-1.11-4.57-.72-6.23,.88-1.91,1.84-1.96,4.13-1.3,6.35,1.33,4.53,4.18,7.68,9.07,8.43,4.35,.67,8.31-.35,11.68-3.26,3.42-2.96,5.4-6.84,6.84-11.03,.32-.92,.72-1.9,.69-2.84Z"/>
        <path class="cls-2" d="M85.62,134.69c0-1.97-.02-3.94-.03-5.91-.43,2-.33,3.96,.03,5.91Z"/>
        <path class="cls-2" d="M97.01,161.72c1.9,3.88,3.85,7.73,5.56,11.69,.44,1.01,.86,1.45,2.02,1.41,2.72-.1,4.64,1.16,5.58,3.75,.44,1.22,.74,2.48,.81,3.79,.02,.33-.11,.77,.46,.87,1.77,.33,3.54,.5,5.32,.11,1.27-.28,1.3-.31,.79-1.54-1.39-3.4-2.91-6.75-4.38-10.12-1.5-3.45-3.23-6.78-5.15-10.01-1.85-3.12-3.75-6.21-5.6-9.34-1.23-2.08-2.46-4.17-3.61-6.29-.66-1.22-1.45-2.39-1.89-3.72,0-.02-.02-.04-.03-.06l-.05-.1c0,6.41,0,12.82,0,19.23,.05,.11,.1,.22,.16,.32Z"/>
        <path class="cls-2" d="M167.22,150.58c-.87-1-1.68-2.05-2.51-3.08-.18-.24-.37-.48-.55-.72-.71-.51-.91-1.06-.52-1.95,.53-1.21,.85-2.51,1.26-3.77,.35-1.87,.7-3.73,1.06-5.6,.03-1.32,.07-2.63,.1-3.95,0-.29,0-.58,0-.86-.02-.08-.03-.17-.05-.25,0-.1-.01-.2-.02-.3-.09-1.51-.26-2.97-.49-4.24-.33-1.87-.77-2.72-1.23-3.64-.08,.1-.08-.29-.16-.19-.8-1.85-1.79-3.62-2.72-5.44-6.66-12.87-15.55-24.17-24.98-35.08-7.48-8.65-15.24-17.05-22.45-25.95-11.67-14.41-17.39-30.78-17.15-49.29,.02-1.48-.04-2.95,0-4.43,.03-1.29-.5-1.9-1.83-1.86-1.84,.05-3.69,0-5.54,0-3.95,0-3.96,0-3.95,3.95,.11,41.61-.07,83.21,.1,124.82,.04-.2,.09-.39,.14-.59,.82-3.1,2.67-5.51,4.88-7.71,.08-.07,.15-.15,.23-.22,.33-.31,.85,.02,.72,.45-.97,3.24-.41,6.49,.42,9.71,.98,3.79,2.63,7.33,4.31,10.86,.06,.12,.17,.23,.25,.34l.3,.56c0-17.5,0-35.01,0-52.51,0-2.64,.14-2.75,2.61-2.16,3.77,.91,7.39,2.14,10.9,3.62l-9.46,26.28c-.31,.87,.14,1.84,1.01,2.15l10-27.77c1.72,.76,3.41,1.57,5.09,2.42l-12.29,34.11c-.16,.44,.07,.92,.51,1.08h0c.44,.16,.92-.07,1.08-.51l12.21-33.9c1.79,.94,3.55,1.93,5.3,2.95l-13.86,38.48c-.15,.41,.07,.86,.48,1.01l.1,.03c.41,.15,.86-.07,1.01-.48l13.75-38.19c.39,.23,.78,.46,1.17,.7,1.49,.89,2.95,1.82,4.38,2.79l-15.31,42.51c-.16,.44,.07,.92,.51,1.08,.44,.16,.92-.07,1.08-.51l15.16-42.09c1.79,1.27,3.53,2.61,5.18,4.05l-16.63,46.18c-.16,.44,.07,.92,.51,1.08h0c.44,.16,.92-.07,1.08-.51l16.4-45.54c1.66,1.54,3.22,3.19,4.67,4.97l-17.36,48.21c-.16,.44,.07,.92,.51,1.08s.92-.07,1.08-.51l17-47.2c1.5,2.01,2.84,4.05,4.07,6.14l-.39-.14-17.98,49.93c.87,.31,1.84-.14,2.15-1.01l17.05-47.33c1.17,2.1,2.24,4.24,3.27,6.45l.21,1.58c.21,3.23-.17,6.18-.96,9.08-1.56,5.68-4.6,10.4-9.22,14.07-.4,.32-.41,.49-.13,.88,.76,1.04,1.45,2.15,2.22,3.18,.38,.51,.34,.85-.04,1.34-4.52,5.91-8.75,12.02-12.3,18.57-2.41,4.44-4.51,9.01-5.83,13.91-1,3.71-1.6,7.45-.93,11.3,.38,2.18,1.05,4.26,2.39,6.05,3.3,4.4,7.82,6.01,13.16,5.46,1.77-.18,3.49-.61,4.65-2.35,1.3-1.93,1.54-4.47,.24-6.32-1.4-1.99-3.83-2.8-6.11-2.03-2.25,.76-3.66,2.86-3.6,5.24,.02,.94,.42,1.76,.77,2.74-1.57-.82-2.62-1.98-3.47-3.29-.75-1.15-1.55-2.32-1.76-3.72-.52-3.37,.14-6.61,1.24-9.77,1.57-4.5,3.95-8.58,6.62-12.49,4.27-6.25,9.19-11.99,14.38-17.49,2.39-2.54,4.81-5.05,7.23-7.56,1.87-1.94,3.74-3.87,5.61-5.8,.43-.44,.38-.7,.01-1.12Z"/>
        <path class="cls-2" d="M90.74,148.64c-.18-.4-.35-.8-.53-1.21,0-.04-.02-.08-.05-.11-.08-.58-.46-1.02-.67-1.54,0-.02-.01-.04-.02-.06-.14-.53-.33-1.04-.65-1.48-.02-.03-.04-.07-.06-.11l-.18-.53c-.92-2.3-1.9-4.57-2.52-6.97-.17-.65-.32-1.29-.43-1.94,.05,8.99,.1,17.98,.19,26.97,.07,7.43,.06,14.87,.06,22.31,.02,19.57,.02,39.14,.02,58.71,0,2.4-.03,2.43-2.29,1.4-9.29-4.26-18.99-5.06-28.99-3.62-11.46,1.64-21.47,6.71-30.91,13.07-7.36,4.96-13.64,11.03-18.28,18.69-3.68,6.07-5.92,12.61-5.34,19.76,1.12,13.79,12.35,25.96,29.08,26.53,8.78,.29,17.2-1.24,25.28-4.55,14.84-6.07,27.47-14.91,35.41-29.33,4.02-7.31,6.96-14.9,6.93-23.49-.11-28.13-.04-56.27-.04-84.4h.1c0-5.11,0-10.22,0-15.33-2.04-4.16-3.99-8.36-5.98-12.54-.04-.08-.09-.14-.14-.22Z"/>
      </g>
      <g>
        <path class="cls-4" d="M102.91,285.26l3.98-6.86c2.71,2.29,7.24,3.85,11.43,3.85h.3c10.83,0,19.64-8.97,19.64-19.72l-.17-41.9,7.7,.04,.13,41.94c0,15.19-12.15,27.34-27.21,27.34h-.47c-5.16,0-11.17-1.86-15.32-4.7Z"/>
        <path class="cls-4" d="M155.99,254.79c0-19.34,15.79-35.13,35.04-35.13s35.08,15.79,35.08,35.13-15.79,34.96-35.13,34.96-35-15.74-35-34.96Zm62.34-.04c0-15.02-12.27-27.34-27.34-27.34s-27.21,12.32-27.21,27.34,12.23,27.21,27.21,27.21,27.34-12.23,27.34-27.21Z"/>
        <path class="cls-4" d="M276.45,288.86l-19.04-26.62h-12.74v26.62h-7.7l-.04-68.22h20.14c12.65,0,22.98,9.73,22.98,21.75,0,8.84-6.05,16.46-14.35,18.96l20.27,27.51h-9.52Zm-19.13-33.09c8.13,0,14.81-6.18,14.81-13.54,0-7.87-6.77-13.97-14.81-13.97h-12.7v27.47l12.7,.04Z"/>
        <path class="cls-4" d="M290.3,254.79c0-19.34,15.79-35.13,35.04-35.13s35.08,15.79,35.08,35.13-15.79,34.96-35.13,34.96-35-15.74-35-34.96Zm62.34-.04c0-15.02-12.27-27.34-27.34-27.34s-27.21,12.32-27.21,27.34,12.23,27.21,27.21,27.21,27.34-12.23,27.34-27.21Z"/>
        <path class="cls-4" d="M371.23,220.64h21.63c13.2,0,23.99,9.9,23.99,22.01s-10.79,21.03-23.99,21.03h-13.92v25.18h-7.7v-68.22Zm37.92,21.92c0-7.87-7.32-14.3-16.29-14.3h-13.92v27.8l13.92,.04c8.97,.04,16.29-6.05,16.29-13.54Z"/>
        <path class="cls-4" d="M422.62,254.79c0-19.34,15.79-35.13,35.04-35.13s35.08,15.79,35.08,35.13-15.78,34.96-35.13,34.96-35-15.74-35-34.96Zm62.34-.04c0-15.02-12.27-27.34-27.34-27.34s-27.21,12.32-27.21,27.34,12.23,27.21,27.21,27.21,27.34-12.23,27.34-27.21Z"/>
        <path class="cls-4" d="M496.65,241.55c2.29,0,7.36-2.33,7.36-8.97,0-1.27-.17-2.16-.8-3.17-2.5,0-5.04-1.78-5.04-4.91s2.41-5.67,5.67-5.67c3,0,6.09,2.58,6.09,8.76,0,9.06-5.2,15.4-10.49,15.4-1.74,0-2.79-.89-2.79-1.44Z"/>
        <path class="cls-4" d="M516.25,276.67l5.92-4.36c3.09,5.84,10.07,9.73,17.31,9.73,8.93,0,16.21-4.82,16.21-11.55,0-7.66-9.78-11.34-18.49-14.64-8.38-3.26-17.73-7.36-17.73-17.9s9.44-18.32,21.41-18.32c10.11,0,17.01,5.54,19.55,12.27l-5.8,3.89c-2.2-5.12-7.7-8.59-13.84-8.59-7.32,0-13.58,4.82-13.58,10.92,0,6.6,7.49,9.01,16.29,12.4,10.24,4.15,19.93,8.89,19.93,19.85,0,11.76-10.88,19.43-24,19.43-11.21,0-19.93-5.84-23.19-13.12Z"/>
      </g>
      <text class="cls-1" transform="translate(432.59 334)"><tspan x="0" y="0">SHOP</tspan></text>
    </g>
  </g>
</svg>